<mxfile host="app.diagrams.net" modified="2021-02-09T09:41:42.776Z" agent="5.0 (Windows NT 10.0; Win64; x64) AppleWebKit/537.36 (KHTML, like Gecko) Chrome/84.0.4147.125 Safari/537.36" etag="68_ooNC7SXx-YirsSAMm" version="14.3.0" type="github" pages="2">
  <diagram name="辣妈帮" id="97916047-d0de-89f5-080d-49f4d83e522f">
    <mxGraphModel dx="1800" dy="713" grid="1" gridSize="10" guides="1" tooltips="1" connect="1" arrows="1" fold="1" page="1" pageScale="1.5" pageWidth="1169" pageHeight="827" background="#ffffff" math="0" shadow="0">
      <root>
        <mxCell id="0" />
        <mxCell id="1" parent="0" />
        <mxCell id="3" value="金赞 53" style="rounded=1;fillColor=#10739E;strokeColor=none;shadow=1;gradientColor=none;fontStyle=1;fontColor=#FFFFFF;fontSize=14;" parent="1" vertex="1">
          <mxGeometry x="662" y="300" width="220" height="60" as="geometry" />
        </mxCell>
        <mxCell id="4" value="本地服务 柴世玮 22" style="rounded=1;fillColor=#10739E;strokeColor=none;shadow=1;gradientColor=none;fontStyle=1;fontColor=#FFFFFF;fontSize=14;" parent="1" vertex="1">
          <mxGeometry x="302" y="455.5" width="200" height="44.5" as="geometry" />
        </mxCell>
        <mxCell id="5" value="团购 赵琦 8" style="rounded=1;fillColor=#10739E;strokeColor=none;shadow=1;gradientColor=none;fontStyle=1;fontColor=#FFFFFF;fontSize=14;" parent="1" vertex="1">
          <mxGeometry x="640" y="460.5" width="140" height="44.5" as="geometry" />
        </mxCell>
        <mxCell id="6" value="广告执行 俞言 3" style="rounded=1;fillColor=#10739E;strokeColor=none;shadow=1;gradientColor=none;fontStyle=1;fontColor=#FFFFFF;fontSize=14;" parent="1" vertex="1">
          <mxGeometry x="1490" y="450" width="130" height="40" as="geometry" />
        </mxCell>
        <mxCell id="7" value="华南 杜春娇" style="rounded=1;fillColor=#10739E;strokeColor=none;shadow=1;gradientColor=none;fontStyle=1;fontColor=#FFFFFF;fontSize=14;" parent="1" vertex="1">
          <mxGeometry x="1400" y="450" width="100" height="40" as="geometry" />
        </mxCell>
        <mxCell id="8" value="拉新 李亚平 4" style="rounded=1;fillColor=#10739E;strokeColor=none;shadow=1;gradientColor=none;fontStyle=1;fontColor=#FFFFFF;fontSize=14;" parent="1" vertex="1">
          <mxGeometry x="20" y="560" width="110" height="35.5" as="geometry" />
        </mxCell>
        <mxCell id="9" value="运营组 刘璇 13" style="rounded=1;fillColor=#10739E;strokeColor=none;shadow=1;gradientColor=none;fontStyle=1;fontColor=#FFFFFF;fontSize=14;" parent="1" vertex="1">
          <mxGeometry x="169" y="557.25" width="140" height="40" as="geometry" />
        </mxCell>
        <mxCell id="11" value="钟敏组 9" style="rounded=1;fillColor=#10739E;strokeColor=none;shadow=1;gradientColor=none;fontStyle=1;fontColor=#FFFFFF;fontSize=14;" parent="1" vertex="1">
          <mxGeometry x="133.5" y="646.88" width="100" height="27.25" as="geometry" />
        </mxCell>
        <mxCell id="13" value="月嫂组 龙邦媛 1+?" style="rounded=1;fillColor=#10739E;strokeColor=none;shadow=1;gradientColor=none;fontStyle=1;fontColor=#FFFFFF;fontSize=14;" parent="1" vertex="1">
          <mxGeometry x="338" y="560" width="128" height="34.5" as="geometry" />
        </mxCell>
        <mxCell id="30" value="" style="edgeStyle=elbowEdgeStyle;elbow=vertical;strokeWidth=4;endArrow=block;endFill=1;fontStyle=1;strokeColor=#23445D;" parent="1" source="3" target="5" edge="1">
          <mxGeometry x="22" y="165.5" width="100" height="100" as="geometry">
            <mxPoint x="22" y="265.5" as="sourcePoint" />
            <mxPoint x="122" y="165.5" as="targetPoint" />
          </mxGeometry>
        </mxCell>
        <mxCell id="31" value="" style="edgeStyle=elbowEdgeStyle;elbow=vertical;strokeWidth=4;endArrow=block;endFill=1;fontStyle=1;strokeColor=#23445D;" parent="1" source="3" target="4" edge="1">
          <mxGeometry x="22" y="165.5" width="100" height="100" as="geometry">
            <mxPoint x="22" y="265.5" as="sourcePoint" />
            <mxPoint x="122" y="165.5" as="targetPoint" />
            <Array as="points">
              <mxPoint x="580" y="410" />
            </Array>
          </mxGeometry>
        </mxCell>
        <mxCell id="CD8ixGrWHs0Is0rzKzxi-55" value="" style="edgeStyle=elbowEdgeStyle;elbow=vertical;strokeWidth=4;endArrow=block;endFill=1;fontStyle=1;strokeColor=#23445D;exitX=0.5;exitY=1;exitDx=0;exitDy=0;entryX=0.5;entryY=0;entryDx=0;entryDy=0;" parent="1" source="3" target="7" edge="1">
          <mxGeometry x="32" y="175.5" width="100" height="100" as="geometry">
            <mxPoint x="770" y="410" as="sourcePoint" />
            <mxPoint x="1330" y="450" as="targetPoint" />
            <Array as="points">
              <mxPoint x="960" y="410" />
            </Array>
          </mxGeometry>
        </mxCell>
        <mxCell id="CD8ixGrWHs0Is0rzKzxi-56" value="高蒙蒙组 3" style="rounded=1;fillColor=#10739E;strokeColor=none;shadow=1;gradientColor=none;fontStyle=1;fontColor=#FFFFFF;fontSize=14;" parent="1" vertex="1">
          <mxGeometry x="309" y="644.13" width="80" height="30" as="geometry" />
        </mxCell>
        <mxCell id="CD8ixGrWHs0Is0rzKzxi-58" value="医务渠道 游新樾 13" style="rounded=1;fillColor=#10739E;strokeColor=none;shadow=1;gradientColor=none;fontStyle=1;fontColor=#FFFFFF;fontSize=14;" parent="1" vertex="1">
          <mxGeometry x="882" y="460.5" width="130" height="44.5" as="geometry" />
        </mxCell>
        <mxCell id="CD8ixGrWHs0Is0rzKzxi-60" value="华东 杨治琴 4+1" style="rounded=1;fillColor=#10739E;strokeColor=none;shadow=1;gradientColor=none;fontStyle=1;fontColor=#FFFFFF;fontSize=14;" parent="1" vertex="1">
          <mxGeometry x="940" y="540" width="110" height="40" as="geometry" />
        </mxCell>
        <mxCell id="CD8ixGrWHs0Is0rzKzxi-61" value="华南 王娟 7" style="rounded=1;fillColor=#10739E;strokeColor=none;shadow=1;gradientColor=none;fontStyle=1;fontColor=#FFFFFF;fontSize=14;" parent="1" vertex="1">
          <mxGeometry x="1070" y="540" width="110" height="40" as="geometry" />
        </mxCell>
        <mxCell id="CD8ixGrWHs0Is0rzKzxi-62" value="助理 沙敏" style="rounded=1;fillColor=#10739E;strokeColor=none;shadow=1;gradientColor=none;fontStyle=1;fontColor=#FFFFFF;fontSize=14;" parent="1" vertex="1">
          <mxGeometry x="790" y="540" width="110" height="40" as="geometry" />
        </mxCell>
        <mxCell id="CD8ixGrWHs0Is0rzKzxi-65" value="" style="edgeStyle=elbowEdgeStyle;elbow=vertical;strokeWidth=4;endArrow=block;endFill=1;fontStyle=1;strokeColor=#23445D;exitX=0.5;exitY=1;exitDx=0;exitDy=0;entryX=0.5;entryY=0;entryDx=0;entryDy=0;" parent="1" source="4" target="8" edge="1">
          <mxGeometry x="-218" y="-109.5" width="100" height="100" as="geometry">
            <mxPoint x="372" y="560.5" as="sourcePoint" />
            <mxPoint x="80" y="545" as="targetPoint" />
            <Array as="points">
              <mxPoint x="240" y="530" />
            </Array>
          </mxGeometry>
        </mxCell>
        <mxCell id="CD8ixGrWHs0Is0rzKzxi-66" value="" style="edgeStyle=elbowEdgeStyle;elbow=vertical;strokeWidth=4;endArrow=block;endFill=1;fontStyle=1;strokeColor=#23445D;exitX=0.5;exitY=1;exitDx=0;exitDy=0;entryX=0.55;entryY=0.033;entryDx=0;entryDy=0;entryPerimeter=0;" parent="1" target="9" edge="1">
          <mxGeometry x="-220" y="-109.5" width="100" height="100" as="geometry">
            <mxPoint x="400" y="515.5" as="sourcePoint" />
            <mxPoint x="73" y="555.5" as="targetPoint" />
            <Array as="points">
              <mxPoint x="238" y="530" />
            </Array>
          </mxGeometry>
        </mxCell>
        <mxCell id="CD8ixGrWHs0Is0rzKzxi-67" value="" style="edgeStyle=elbowEdgeStyle;elbow=vertical;strokeWidth=4;endArrow=block;endFill=1;fontStyle=1;strokeColor=#23445D;entryX=0.5;entryY=0;entryDx=0;entryDy=0;" parent="1" target="13" edge="1">
          <mxGeometry x="-210" y="-99.5" width="100" height="100" as="geometry">
            <mxPoint x="402" y="500" as="sourcePoint" />
            <mxPoint x="287" y="571.3199999999999" as="targetPoint" />
            <Array as="points" />
          </mxGeometry>
        </mxCell>
        <mxCell id="CD8ixGrWHs0Is0rzKzxi-73" value="严秀丽&lt;br&gt;王迅&lt;br&gt;林嘉文&lt;br&gt;徐园杰&lt;br&gt;兰捡英&lt;br&gt;叶小平&lt;br&gt;林妙丽&lt;br&gt;潘燚" style="text;whiteSpace=wrap;html=1;" parent="1" vertex="1">
          <mxGeometry x="169" y="692.76" width="51" height="120" as="geometry" />
        </mxCell>
        <mxCell id="CD8ixGrWHs0Is0rzKzxi-74" value="&lt;span style=&quot;color: rgb(0 , 0 , 0) ; font-family: &amp;#34;helvetica&amp;#34; ; font-size: 12px ; font-style: normal ; font-weight: 400 ; letter-spacing: normal ; text-align: left ; text-indent: 0px ; text-transform: none ; word-spacing: 0px ; background-color: rgb(248 , 249 , 250) ; display: inline ; float: none&quot;&gt;范文婷&lt;br&gt;&lt;/span&gt;&lt;font face=&quot;helvetica&quot;&gt;魏思敏&lt;br&gt;&lt;/font&gt;韦荣娜&lt;font face=&quot;helvetica&quot;&gt;&lt;br&gt;&lt;/font&gt;" style="text;whiteSpace=wrap;html=1;" parent="1" vertex="1">
          <mxGeometry x="52.5" y="610" width="45" height="57.24" as="geometry" />
        </mxCell>
        <mxCell id="CD8ixGrWHs0Is0rzKzxi-75" value="卢晓君&lt;br style=&quot;color: rgb(0 , 0 , 0) ; font-family: &amp;#34;helvetica&amp;#34; ; font-size: 12px ; font-style: normal ; font-weight: 400 ; letter-spacing: normal ; text-align: left ; text-indent: 0px ; text-transform: none ; word-spacing: 0px ; background-color: rgb(248 , 249 , 250)&quot;&gt;&lt;span style=&quot;color: rgb(0 , 0 , 0) ; font-family: &amp;#34;helvetica&amp;#34; ; font-size: 12px ; font-style: normal ; font-weight: 400 ; letter-spacing: normal ; text-align: left ; text-indent: 0px ; text-transform: none ; word-spacing: 0px ; background-color: rgb(248 , 249 , 250) ; display: inline ; float: none&quot;&gt;张健欣&lt;/span&gt;" style="text;whiteSpace=wrap;html=1;" parent="1" vertex="1">
          <mxGeometry x="530" y="612.76" width="60" height="40" as="geometry" />
        </mxCell>
        <mxCell id="CD8ixGrWHs0Is0rzKzxi-76" value="商务组 左明月 3" style="rounded=1;fillColor=#10739E;strokeColor=none;shadow=1;gradientColor=none;fontStyle=1;fontColor=#FFFFFF;fontSize=14;" parent="1" vertex="1">
          <mxGeometry x="490" y="562.75" width="128" height="34.5" as="geometry" />
        </mxCell>
        <mxCell id="CD8ixGrWHs0Is0rzKzxi-77" value="李研&lt;br&gt;孔双泉" style="text;whiteSpace=wrap;html=1;" parent="1" vertex="1">
          <mxGeometry x="329" y="692.76" width="40" height="30" as="geometry" />
        </mxCell>
        <mxCell id="CD8ixGrWHs0Is0rzKzxi-82" value="杨雪营&lt;br&gt;谢颖&lt;br&gt;" style="text;whiteSpace=wrap;html=1;" parent="1" vertex="1">
          <mxGeometry x="1550" y="510" width="40" height="40" as="geometry" />
        </mxCell>
        <mxCell id="CD8ixGrWHs0Is0rzKzxi-83" value="张丽&lt;br&gt;靳丽丽&lt;br&gt;徐娜" style="text;whiteSpace=wrap;html=1;" parent="1" vertex="1">
          <mxGeometry x="980" y="601" width="50" height="38.62" as="geometry" />
        </mxCell>
        <mxCell id="CD8ixGrWHs0Is0rzKzxi-86" value="张波&lt;br&gt;张昭颖&lt;br&gt;江玳瑶&lt;br&gt;黄敏茹&lt;br&gt;刘冰&lt;br&gt;冯行颖&lt;br&gt;唐亚楠" style="text;whiteSpace=wrap;html=1;" parent="1" vertex="1">
          <mxGeometry x="690" y="529.62" width="50" height="110.38" as="geometry" />
        </mxCell>
        <mxCell id="CD8ixGrWHs0Is0rzKzxi-87" value="XX" style="text;whiteSpace=wrap;html=1;" parent="1" vertex="1">
          <mxGeometry x="400" y="610" width="40" height="42.76" as="geometry" />
        </mxCell>
        <mxCell id="CD8ixGrWHs0Is0rzKzxi-88" value="" style="edgeStyle=elbowEdgeStyle;elbow=vertical;strokeWidth=4;endArrow=block;endFill=1;fontStyle=1;strokeColor=#23445D;entryX=0.5;entryY=0;entryDx=0;entryDy=0;" parent="1" target="CD8ixGrWHs0Is0rzKzxi-76" edge="1">
          <mxGeometry x="-210" y="-99.5" width="100" height="100" as="geometry">
            <mxPoint x="400" y="500" as="sourcePoint" />
            <mxPoint x="256" y="568.5699999999999" as="targetPoint" />
            <Array as="points">
              <mxPoint x="480" y="530" />
            </Array>
          </mxGeometry>
        </mxCell>
        <mxCell id="CD8ixGrWHs0Is0rzKzxi-92" value="" style="edgeStyle=elbowEdgeStyle;elbow=vertical;strokeWidth=4;endArrow=block;endFill=1;fontStyle=1;strokeColor=#23445D;entryX=0.5;entryY=0;entryDx=0;entryDy=0;exitX=0.5;exitY=1;exitDx=0;exitDy=0;" parent="1" source="CD8ixGrWHs0Is0rzKzxi-58" target="CD8ixGrWHs0Is0rzKzxi-62" edge="1">
          <mxGeometry x="508" y="165.5" width="100" height="100" as="geometry">
            <mxPoint x="1248" y="505.5" as="sourcePoint" />
            <mxPoint x="1170" y="540" as="targetPoint" />
          </mxGeometry>
        </mxCell>
        <mxCell id="CD8ixGrWHs0Is0rzKzxi-93" value="" style="edgeStyle=elbowEdgeStyle;elbow=vertical;strokeWidth=4;endArrow=block;endFill=1;fontStyle=1;strokeColor=#23445D;entryX=0.5;entryY=0;entryDx=0;entryDy=0;exitX=0.5;exitY=1;exitDx=0;exitDy=0;" parent="1" source="CD8ixGrWHs0Is0rzKzxi-58" target="CD8ixGrWHs0Is0rzKzxi-60" edge="1">
          <mxGeometry x="518" y="175.5" width="100" height="100" as="geometry">
            <mxPoint x="1365" y="505" as="sourcePoint" />
            <mxPoint x="1202" y="550" as="targetPoint" />
          </mxGeometry>
        </mxCell>
        <mxCell id="CD8ixGrWHs0Is0rzKzxi-94" value="" style="edgeStyle=elbowEdgeStyle;elbow=vertical;strokeWidth=4;endArrow=block;endFill=1;fontStyle=1;strokeColor=#23445D;entryX=0.5;entryY=0;entryDx=0;entryDy=0;exitX=0.5;exitY=1;exitDx=0;exitDy=0;" parent="1" source="CD8ixGrWHs0Is0rzKzxi-58" target="CD8ixGrWHs0Is0rzKzxi-61" edge="1">
          <mxGeometry x="518" y="175.5" width="100" height="100" as="geometry">
            <mxPoint x="1350" y="505" as="sourcePoint" />
            <mxPoint x="1202" y="550" as="targetPoint" />
          </mxGeometry>
        </mxCell>
        <mxCell id="CD8ixGrWHs0Is0rzKzxi-95" value="龙欢&lt;br&gt;严金爱&lt;br&gt;孙楠&lt;br&gt;高洁&lt;br&gt;虞彩&lt;br&gt;周佳" style="text;whiteSpace=wrap;html=1;" parent="1" vertex="1">
          <mxGeometry x="1125" y="601" width="40" height="101.38" as="geometry" />
        </mxCell>
        <mxCell id="CD8ixGrWHs0Is0rzKzxi-99" value="" style="edgeStyle=elbowEdgeStyle;elbow=vertical;strokeWidth=4;endArrow=block;endFill=1;fontStyle=1;strokeColor=#23445D;entryX=0.5;entryY=0;entryDx=0;entryDy=0;" parent="1" target="CD8ixGrWHs0Is0rzKzxi-58" edge="1">
          <mxGeometry x="52" y="195.5" width="100" height="100" as="geometry">
            <mxPoint x="770" y="360" as="sourcePoint" />
            <mxPoint x="1180" y="480.5" as="targetPoint" />
            <Array as="points">
              <mxPoint x="1220" y="410" />
            </Array>
          </mxGeometry>
        </mxCell>
        <mxCell id="CD8ixGrWHs0Is0rzKzxi-103" value="" style="edgeStyle=elbowEdgeStyle;elbow=vertical;strokeWidth=4;endArrow=block;endFill=1;fontStyle=1;strokeColor=#23445D;entryX=0.5;entryY=0;entryDx=0;entryDy=0;exitX=0.5;exitY=1;exitDx=0;exitDy=0;" parent="1" source="9" target="11" edge="1">
          <mxGeometry x="72" y="195.5" width="100" height="100" as="geometry">
            <mxPoint x="240" y="607" as="sourcePoint" />
            <mxPoint x="150" y="651.3800000000001" as="targetPoint" />
            <Array as="points">
              <mxPoint x="170" y="620" />
            </Array>
          </mxGeometry>
        </mxCell>
        <mxCell id="CD8ixGrWHs0Is0rzKzxi-104" value="" style="edgeStyle=elbowEdgeStyle;elbow=vertical;strokeWidth=4;endArrow=block;endFill=1;fontStyle=1;strokeColor=#23445D;entryX=0.5;entryY=0;entryDx=0;entryDy=0;" parent="1" target="CD8ixGrWHs0Is0rzKzxi-56" edge="1">
          <mxGeometry x="82" y="205.5" width="100" height="100" as="geometry">
            <mxPoint x="240" y="600" as="sourcePoint" />
            <mxPoint x="350" y="640" as="targetPoint" />
          </mxGeometry>
        </mxCell>
        <mxCell id="5Qsg3Y-xMZEjioLdNlgT-33" value="华东 陈纲 2" style="rounded=1;fillColor=#10739E;strokeColor=none;shadow=1;gradientColor=none;fontStyle=1;fontColor=#FFFFFF;fontSize=14;" parent="1" vertex="1">
          <mxGeometry x="1200" y="450" width="100" height="40" as="geometry" />
        </mxCell>
        <mxCell id="5Qsg3Y-xMZEjioLdNlgT-34" value="华北 彭光杰 2" style="rounded=1;fillColor=#10739E;strokeColor=none;shadow=1;gradientColor=none;fontStyle=1;fontColor=#FFFFFF;fontSize=14;" parent="1" vertex="1">
          <mxGeometry x="1300" y="450" width="100" height="40" as="geometry" />
        </mxCell>
        <mxCell id="5Qsg3Y-xMZEjioLdNlgT-35" value="郭学师" style="text;whiteSpace=wrap;html=1;" parent="1" vertex="1">
          <mxGeometry x="1330" y="510" width="40" height="35" as="geometry" />
        </mxCell>
        <mxCell id="5Qsg3Y-xMZEjioLdNlgT-36" value="魏易" style="text;whiteSpace=wrap;html=1;" parent="1" vertex="1">
          <mxGeometry x="1240" y="512.5" width="40" height="35" as="geometry" />
        </mxCell>
        <mxCell id="5Qsg3Y-xMZEjioLdNlgT-37" value="莫金连" style="rounded=1;fillColor=#10739E;strokeColor=none;shadow=1;gradientColor=none;fontStyle=1;fontColor=#FFFFFF;fontSize=14;" parent="1" vertex="1">
          <mxGeometry x="1620" y="450" width="70" height="40" as="geometry" />
        </mxCell>
        <mxCell id="Gbs0LaQZsY08ICuKaNEH-31" value="成本共计61.4万" style="text;html=1;strokeColor=none;fillColor=none;align=center;verticalAlign=middle;whiteSpace=wrap;rounded=0;strokeWidth=6;fontSize=17;" vertex="1" parent="1">
          <mxGeometry x="930" y="320" width="190" height="20" as="geometry" />
        </mxCell>
      </root>
    </mxGraphModel>
  </diagram>
  <diagram id="lJMs8aJVWRIwma9hSlg-" name="新公司">
    <mxGraphModel dx="1800" dy="713" grid="1" gridSize="10" guides="1" tooltips="1" connect="1" arrows="1" fold="1" page="1" pageScale="1" pageWidth="1100" pageHeight="850" math="0" shadow="0">
      <root>
        <mxCell id="xL_cLHcsy5SXegCy5-nT-0" />
        <mxCell id="xL_cLHcsy5SXegCy5-nT-1" parent="xL_cLHcsy5SXegCy5-nT-0" />
        <mxCell id="xL_cLHcsy5SXegCy5-nT-2" value="王安静 20" style="rounded=1;fillColor=#10739E;strokeColor=none;shadow=1;gradientColor=none;fontStyle=1;fontColor=#FFFFFF;fontSize=14;" parent="xL_cLHcsy5SXegCy5-nT-1" vertex="1">
          <mxGeometry x="662" y="300" width="220" height="60" as="geometry" />
        </mxCell>
        <mxCell id="xL_cLHcsy5SXegCy5-nT-4" value="团购 王璐 14" style="rounded=1;fillColor=#10739E;strokeColor=none;shadow=1;gradientColor=none;fontStyle=1;fontColor=#FFFFFF;fontSize=14;" parent="xL_cLHcsy5SXegCy5-nT-1" vertex="1">
          <mxGeometry x="700" y="455.5" width="140" height="44.5" as="geometry" />
        </mxCell>
        <mxCell id="xL_cLHcsy5SXegCy5-nT-6" value="行政 王惠 3" style="rounded=1;fillColor=#10739E;strokeColor=none;shadow=1;gradientColor=none;fontStyle=1;fontColor=#FFFFFF;fontSize=14;" parent="xL_cLHcsy5SXegCy5-nT-1" vertex="1">
          <mxGeometry x="1050" y="320" width="140" height="40" as="geometry" />
        </mxCell>
        <mxCell id="xL_cLHcsy5SXegCy5-nT-12" value="" style="edgeStyle=elbowEdgeStyle;elbow=vertical;strokeWidth=4;endArrow=block;endFill=1;fontStyle=1;strokeColor=#23445D;" parent="xL_cLHcsy5SXegCy5-nT-1" source="xL_cLHcsy5SXegCy5-nT-2" target="xL_cLHcsy5SXegCy5-nT-4" edge="1">
          <mxGeometry x="22" y="165.5" width="100" height="100" as="geometry">
            <mxPoint x="22" y="265.5" as="sourcePoint" />
            <mxPoint x="122" y="165.5" as="targetPoint" />
          </mxGeometry>
        </mxCell>
        <mxCell id="xL_cLHcsy5SXegCy5-nT-15" value="" style="edgeStyle=elbowEdgeStyle;elbow=vertical;strokeWidth=4;endArrow=block;endFill=1;fontStyle=1;strokeColor=#23445D;entryX=0.5;entryY=0;entryDx=0;entryDy=0;exitX=0.536;exitY=1.033;exitDx=0;exitDy=0;exitPerimeter=0;" parent="xL_cLHcsy5SXegCy5-nT-1" source="x4UgMvyDJ0lEP5ey6tb6-2" target="xL_cLHcsy5SXegCy5-nT-2" edge="1">
          <mxGeometry x="32" y="175.5" width="100" height="100" as="geometry">
            <mxPoint x="1110" y="250" as="sourcePoint" />
            <mxPoint x="1330" y="450" as="targetPoint" />
            <Array as="points">
              <mxPoint x="920" y="260" />
            </Array>
          </mxGeometry>
        </mxCell>
        <mxCell id="xL_cLHcsy5SXegCy5-nT-17" value="流量组 赵媛媛 8" style="rounded=1;fillColor=#10739E;strokeColor=none;shadow=1;gradientColor=none;fontStyle=1;fontColor=#FFFFFF;fontSize=14;" parent="xL_cLHcsy5SXegCy5-nT-1" vertex="1">
          <mxGeometry x="770" y="560" width="120" height="40" as="geometry" />
        </mxCell>
        <mxCell id="xL_cLHcsy5SXegCy5-nT-18" value="财务 陈洪娟 3" style="rounded=1;fillColor=#10739E;strokeColor=none;shadow=1;gradientColor=none;fontStyle=1;fontColor=#FFFFFF;fontSize=14;" parent="xL_cLHcsy5SXegCy5-nT-1" vertex="1">
          <mxGeometry x="1190" y="318" width="130" height="39.5" as="geometry" />
        </mxCell>
        <mxCell id="xL_cLHcsy5SXegCy5-nT-19" value="技术 吴钢 4" style="rounded=1;fillColor=#10739E;strokeColor=none;shadow=1;gradientColor=none;fontStyle=1;fontColor=#FFFFFF;fontSize=14;" parent="xL_cLHcsy5SXegCy5-nT-1" vertex="1">
          <mxGeometry x="540" y="463" width="100" height="37" as="geometry" />
        </mxCell>
        <mxCell id="xL_cLHcsy5SXegCy5-nT-31" value="公关 徐萌阳" style="rounded=1;fillColor=#10739E;strokeColor=none;shadow=1;gradientColor=none;fontStyle=1;fontColor=#FFFFFF;fontSize=14;" parent="xL_cLHcsy5SXegCy5-nT-1" vertex="1">
          <mxGeometry x="420" y="463" width="98" height="40" as="geometry" />
        </mxCell>
        <mxCell id="xL_cLHcsy5SXegCy5-nT-32" value="内容 刘欣欣 2" style="rounded=1;fillColor=#10739E;strokeColor=none;shadow=1;gradientColor=none;fontStyle=1;fontColor=#FFFFFF;fontSize=14;" parent="xL_cLHcsy5SXegCy5-nT-1" vertex="1">
          <mxGeometry x="910" y="558.62" width="110" height="40" as="geometry" />
        </mxCell>
        <mxCell id="xL_cLHcsy5SXegCy5-nT-33" value="陈丹" style="text;whiteSpace=wrap;html=1;" parent="xL_cLHcsy5SXegCy5-nT-1" vertex="1">
          <mxGeometry x="945" y="612.76" width="40" height="32.76" as="geometry" />
        </mxCell>
        <mxCell id="xL_cLHcsy5SXegCy5-nT-35" value="高洋&lt;br&gt;赵培娟" style="text;whiteSpace=wrap;html=1;" parent="xL_cLHcsy5SXegCy5-nT-1" vertex="1">
          <mxGeometry x="1240" y="370" width="50" height="40" as="geometry" />
        </mxCell>
        <mxCell id="xL_cLHcsy5SXegCy5-nT-36" value="李蓉&lt;br&gt;戴镟&lt;br&gt;王锐&lt;br&gt;吴海怡&lt;br&gt;闫万里&lt;br&gt;赵惠月&lt;br&gt;罗萍花" style="text;whiteSpace=wrap;html=1;" parent="xL_cLHcsy5SXegCy5-nT-1" vertex="1">
          <mxGeometry x="820" y="612.76" width="52" height="117.24" as="geometry" />
        </mxCell>
        <mxCell id="xL_cLHcsy5SXegCy5-nT-40" value="蔡政&lt;br&gt;何照欢&lt;br&gt;王禹峰" style="text;whiteSpace=wrap;html=1;" parent="xL_cLHcsy5SXegCy5-nT-1" vertex="1">
          <mxGeometry x="565" y="510" width="50" height="58.62" as="geometry" />
        </mxCell>
        <mxCell id="xL_cLHcsy5SXegCy5-nT-41" value="" style="edgeStyle=elbowEdgeStyle;elbow=vertical;strokeWidth=4;endArrow=block;endFill=1;fontStyle=1;strokeColor=#23445D;entryX=0.5;entryY=0;entryDx=0;entryDy=0;exitX=0.5;exitY=1;exitDx=0;exitDy=0;" parent="xL_cLHcsy5SXegCy5-nT-1" source="xL_cLHcsy5SXegCy5-nT-4" edge="1">
          <mxGeometry x="32" y="175.5" width="100" height="100" as="geometry">
            <mxPoint x="782" y="370" as="sourcePoint" />
            <mxPoint x="694" y="560" as="targetPoint" />
          </mxGeometry>
        </mxCell>
        <mxCell id="xL_cLHcsy5SXegCy5-nT-42" value="" style="edgeStyle=elbowEdgeStyle;elbow=vertical;strokeWidth=4;endArrow=block;endFill=1;fontStyle=1;strokeColor=#23445D;entryX=0.5;entryY=0;entryDx=0;entryDy=0;exitX=0.5;exitY=1;exitDx=0;exitDy=0;" parent="xL_cLHcsy5SXegCy5-nT-1" source="xL_cLHcsy5SXegCy5-nT-4" target="xL_cLHcsy5SXegCy5-nT-17" edge="1">
          <mxGeometry x="42" y="185.5" width="100" height="100" as="geometry">
            <mxPoint x="782" y="525.5" as="sourcePoint" />
            <mxPoint x="704" y="560" as="targetPoint" />
          </mxGeometry>
        </mxCell>
        <mxCell id="xL_cLHcsy5SXegCy5-nT-46" value="陈婷婷&lt;br&gt;秦芳" style="text;whiteSpace=wrap;html=1;" parent="xL_cLHcsy5SXegCy5-nT-1" vertex="1">
          <mxGeometry x="1100" y="370" width="40" height="55" as="geometry" />
        </mxCell>
        <mxCell id="xL_cLHcsy5SXegCy5-nT-47" value="" style="edgeStyle=elbowEdgeStyle;elbow=vertical;strokeWidth=4;endArrow=block;endFill=1;fontStyle=1;strokeColor=#23445D;entryX=0.5;entryY=0;entryDx=0;entryDy=0;" parent="xL_cLHcsy5SXegCy5-nT-1" target="xL_cLHcsy5SXegCy5-nT-19" edge="1">
          <mxGeometry x="170" y="125.5" width="100" height="100" as="geometry">
            <mxPoint x="770" y="360" as="sourcePoint" />
            <mxPoint x="1330" y="405.5" as="targetPoint" />
            <Array as="points">
              <mxPoint x="1230" y="410" />
            </Array>
          </mxGeometry>
        </mxCell>
        <mxCell id="xL_cLHcsy5SXegCy5-nT-48" value="" style="edgeStyle=elbowEdgeStyle;elbow=vertical;strokeWidth=4;endArrow=block;endFill=1;fontStyle=1;strokeColor=#23445D;entryX=0.5;entryY=0;entryDx=0;entryDy=0;" parent="xL_cLHcsy5SXegCy5-nT-1" target="xL_cLHcsy5SXegCy5-nT-32" edge="1">
          <mxGeometry x="180" y="135.5" width="100" height="100" as="geometry">
            <mxPoint x="772" y="500" as="sourcePoint" />
            <mxPoint x="1680" y="450" as="targetPoint" />
            <Array as="points">
              <mxPoint x="880" y="530" />
              <mxPoint x="1240" y="420" />
            </Array>
          </mxGeometry>
        </mxCell>
        <mxCell id="xL_cLHcsy5SXegCy5-nT-49" value="" style="edgeStyle=elbowEdgeStyle;elbow=vertical;strokeWidth=4;endArrow=block;endFill=1;fontStyle=1;strokeColor=#23445D;exitX=0.5;exitY=1;exitDx=0;exitDy=0;entryX=0.5;entryY=0;entryDx=0;entryDy=0;" parent="xL_cLHcsy5SXegCy5-nT-1" source="xL_cLHcsy5SXegCy5-nT-2" target="xL_cLHcsy5SXegCy5-nT-31" edge="1">
          <mxGeometry x="42" y="185.5" width="100" height="100" as="geometry">
            <mxPoint x="782" y="370" as="sourcePoint" />
            <mxPoint x="1170" y="470.5" as="targetPoint" />
            <Array as="points">
              <mxPoint x="680" y="410" />
              <mxPoint x="690" y="410" />
            </Array>
          </mxGeometry>
        </mxCell>
        <mxCell id="xL_cLHcsy5SXegCy5-nT-50" value="" style="edgeStyle=elbowEdgeStyle;elbow=vertical;strokeWidth=4;endArrow=block;endFill=1;fontStyle=1;strokeColor=#23445D;entryX=0.5;entryY=0;entryDx=0;entryDy=0;exitX=0.532;exitY=1.067;exitDx=0;exitDy=0;exitPerimeter=0;" parent="xL_cLHcsy5SXegCy5-nT-1" source="x4UgMvyDJ0lEP5ey6tb6-2" target="xL_cLHcsy5SXegCy5-nT-18" edge="1">
          <mxGeometry x="52" y="195.5" width="100" height="100" as="geometry">
            <mxPoint x="770" y="360" as="sourcePoint" />
            <mxPoint x="1180" y="480.5" as="targetPoint" />
            <Array as="points">
              <mxPoint x="1230" y="260" />
            </Array>
          </mxGeometry>
        </mxCell>
        <mxCell id="xL_cLHcsy5SXegCy5-nT-51" value="设计 古伟 3" style="rounded=1;fillColor=#10739E;strokeColor=none;shadow=1;gradientColor=none;fontStyle=1;fontColor=#FFFFFF;fontSize=14;" parent="xL_cLHcsy5SXegCy5-nT-1" vertex="1">
          <mxGeometry x="640" y="560" width="110" height="44.5" as="geometry" />
        </mxCell>
        <mxCell id="xL_cLHcsy5SXegCy5-nT-53" value="黄紫蕙&lt;br&gt;张水清" style="text;whiteSpace=wrap;html=1;" parent="xL_cLHcsy5SXegCy5-nT-1" vertex="1">
          <mxGeometry x="680" y="625.69" width="60" height="30" as="geometry" />
        </mxCell>
        <mxCell id="x4UgMvyDJ0lEP5ey6tb6-0" value="其他 4" style="rounded=1;fillColor=#10739E;strokeColor=none;shadow=1;gradientColor=none;fontStyle=1;fontColor=#FFFFFF;fontSize=14;" parent="xL_cLHcsy5SXegCy5-nT-1" vertex="1">
          <mxGeometry x="1430" y="320" width="118" height="40" as="geometry" />
        </mxCell>
        <mxCell id="x4UgMvyDJ0lEP5ey6tb6-1" value="法务 刘华美" style="rounded=1;fillColor=#10739E;strokeColor=none;shadow=1;gradientColor=none;fontStyle=1;fontColor=#FFFFFF;fontSize=14;" parent="xL_cLHcsy5SXegCy5-nT-1" vertex="1">
          <mxGeometry x="1320" y="320" width="118" height="40" as="geometry" />
        </mxCell>
        <mxCell id="x4UgMvyDJ0lEP5ey6tb6-2" value="金赞（属于辣妈帮） 31" style="rounded=1;fillColor=#10739E;strokeColor=none;shadow=1;gradientColor=none;fontStyle=1;fontColor=#FFFFFF;fontSize=14;" parent="xL_cLHcsy5SXegCy5-nT-1" vertex="1">
          <mxGeometry x="990" y="180" width="220" height="60" as="geometry" />
        </mxCell>
        <mxCell id="RNM-x-mIESxZw4AJoJp8-0" value="&lt;font color=&quot;rgba(0, 0, 0, 0)&quot; face=&quot;monospace&quot;&gt;&lt;span style=&quot;font-size: 0px&quot;&gt;ffdfd&lt;/span&gt;&lt;/font&gt;" style="text;whiteSpace=wrap;html=1;" vertex="1" parent="xL_cLHcsy5SXegCy5-nT-1">
          <mxGeometry x="1470" y="377.5" width="50" height="40" as="geometry" />
        </mxCell>
        <mxCell id="RNM-x-mIESxZw4AJoJp8-1" value="&lt;span style=&quot;color: rgba(0 , 0 , 0 , 0) ; font-family: monospace ; font-size: 0px&quot;&gt;%3CmxGraphModel%3E%3Croot%3E%3CmxCell%20id%3D%220%22%2F%3E%3CmxCell%20id%3D%221%22%20parent%3D%220%22%2F%3E%3CmxCell%20id%3D%222%22%20value%3D%22%E9%99%88%E5%A9%B7%E5%A9%B7%26lt%3Bbr%26gt%3B%E7%A7%A6%E8%8A%B3%22%20style%3D%22text%3BwhiteSpace%3Dwrap%3Bhtml%3D1%3B%22%20vertex%3D%221%22%20parent%3D%221%22%3E%3CmxGeometry%20x%3D%221100%22%20y%3D%22370%22%20width%3D%2240%22%20height%3D%2255%22%20as%3D%22geometry%22%2F%3E%3C%2FmxCell%3E%3C%2Froot%3E%3C%2FmxGraphModel%3E&lt;/span&gt;" style="text;whiteSpace=wrap;html=1;" vertex="1" parent="xL_cLHcsy5SXegCy5-nT-1">
          <mxGeometry x="1470" y="377.5" width="40" height="55" as="geometry" />
        </mxCell>
        <mxCell id="RNM-x-mIESxZw4AJoJp8-3" value="凌建国&lt;br&gt;代星&lt;br&gt;赵俊然刘威" style="text;whiteSpace=wrap;html=1;" vertex="1" parent="xL_cLHcsy5SXegCy5-nT-1">
          <mxGeometry x="1475" y="377.5" width="40" height="92.5" as="geometry" />
        </mxCell>
        <mxCell id="-lc2sLSWIT5uEvctNcD1-0" value="成本共计53.3万" style="text;html=1;strokeColor=none;fillColor=none;align=center;verticalAlign=middle;whiteSpace=wrap;rounded=0;strokeWidth=6;fontSize=17;" vertex="1" parent="xL_cLHcsy5SXegCy5-nT-1">
          <mxGeometry x="1260" y="200" width="190" height="20" as="geometry" />
        </mxCell>
      </root>
    </mxGraphModel>
  </diagram>
</mxfile>
